<svg xmlns="http://www.w3.org/2000/svg" viewBox="0 0 1024 1024">
<rect width="1024" height="1024" fill="#FBF6EF"/>
<rect x="64" y="64" width="896" height="896" rx="120" fill="none" stroke="#C9888C" stroke-opacity="0.18" stroke-width="3"/>
<g transform="translate(512.0,250) scale(3.0)">
  <path d="M0 46 C0 30 0 14 0 0" stroke="#C9888C" stroke-width="2.2" stroke-linecap="round" fill="none"/>
  <ellipse cx="-13" cy="34" rx="11" ry="5.6" transform="rotate(-32 -13 34)" fill="#C9888C"/>
  <ellipse cx="13" cy="28" rx="11" ry="5.6" transform="rotate(32 13 28)" fill="#C9888C"/>
  <ellipse cx="-11" cy="17" rx="9.5" ry="5" transform="rotate(-28 -11 17)" fill="#C9888C"/>
  <ellipse cx="11" cy="11" rx="9.5" ry="5" transform="rotate(28 11 11)" fill="#C9888C"/>
  <ellipse cx="0" cy="-2" rx="6.5" ry="7.5" fill="#E7B5B8"/>
</g>
<g transform="translate(227.24,766.05)" opacity="1"><path d="M77.84 -21.28Q73.92 -20.720000000000002 69.16 -24.360000000000003Q64.4 -28.000000000000004 60.480000000000004 -30.800000000000004Q54.88 -37.52 52.64 -42.56Q50.400000000000006 -47.6 50.400000000000006 -53.760000000000005Q50.400000000000006 -59.92000000000001 51.52 -68.32000000000001Q54.32000000000001 -77.28 58.24000000000001 -92.4Q62.160000000000004 -107.52000000000001 67.76 -124.88000000000001Q68.88000000000001 -131.60000000000002 71.96000000000001 -140.84000000000003Q75.04 -150.08 78.4 -158.76000000000002Q81.76 -167.44000000000003 83.44000000000001 -171.92000000000002Q87.36000000000001 -185.92000000000002 91.56 -198.8Q95.76 -211.68 101.92000000000002 -228.48000000000002Q108.08000000000001 -245.28000000000003 117.04 -271.04Q129.36 -304.64000000000004 135.52 -321.44000000000005Q141.68 -338.24 144.48000000000002 -345.52Q147.28 -352.8 148.4 -357.28000000000003Q148.4 -361.76000000000005 154.84000000000003 -365.96000000000004Q161.28000000000003 -370.16 166.32000000000002 -370.16Q174.16000000000003 -369.6 181.44000000000003 -360.92Q188.72000000000003 -352.24 191.52000000000004 -340.20000000000005Q194.32000000000002 -328.16 187.60000000000002 -316.96000000000004Q178.64000000000001 -296.8 169.96000000000004 -271.88Q161.28000000000003 -246.96000000000004 152.88000000000002 -222.32000000000002Q144.48000000000002 -197.68 136.08 -176.96Q135.52 -174.16000000000003 132.44 -167.44000000000003Q129.36 -160.72000000000003 127.12000000000002 -156.24Q124.88000000000001 -151.76000000000002 122.92000000000002 -147.84000000000003Q120.96000000000001 -143.92000000000002 120.96000000000001 -143.92000000000002Q120.4 -140.56 118.72 -134.4Q117.04 -128.24 115.36000000000001 -123.76Q114.80000000000001 -120.96000000000001 113.68 -116.48000000000002Q112.56000000000002 -112.00000000000001 112.00000000000001 -107.52000000000001Q114.80000000000001 -110.88000000000001 119.84 -115.64000000000001Q124.88000000000001 -120.4 132.72 -127.68Q141.68 -135.52 148.4 -141.12Q155.12 -146.72000000000003 161.84 -151.20000000000002Q168.00000000000003 -155.68 173.32000000000002 -159.60000000000002Q178.64000000000001 -163.52 178.64000000000001 -163.52Q179.76000000000002 -165.20000000000002 181.16000000000003 -167.44Q182.56000000000003 -169.68 184.24 -170.24Q185.36 -171.36 188.16000000000003 -173.32000000000002Q190.96 -175.28000000000003 193.76000000000002 -177.52Q198.8 -180.88000000000002 204.40000000000003 -183.12Q210.00000000000003 -185.36 216.16000000000003 -186.48000000000002Q222.32000000000002 -187.60000000000002 227.92000000000002 -187.60000000000002Q234.64000000000001 -187.60000000000002 241.92000000000002 -182.28000000000003Q249.20000000000002 -176.96 255.36 -167.44000000000003Q260.96000000000004 -160.16000000000003 262.36 -150.36Q263.76000000000005 -140.56 262.64000000000004 -124.32000000000001Q262.64000000000004 -119.84000000000002 260.12 -107.52000000000001Q257.6 -95.2 256.48 -89.04L251.44000000000003 -70.0H255.92000000000002Q262.08000000000004 -72.24000000000001 267.96000000000004 -70.56Q273.84000000000003 -68.88000000000001 273.84000000000003 -68.88000000000001Q276.64000000000004 -67.2 279.16 -64.96000000000001Q281.68 -62.720000000000006 283.92 -61.60000000000001Q287.28000000000003 -57.120000000000005 282.80000000000007 -48.720000000000006Q278.32000000000005 -40.32000000000001 272.72 -36.96Q259.28000000000003 -28.000000000000004 248.92000000000002 -25.760000000000005Q238.56000000000003 -23.520000000000003 227.36 -29.680000000000003Q216.72000000000003 -36.96 213.08000000000004 -47.040000000000006Q209.44000000000003 -57.120000000000005 210.00000000000003 -74.48Q212.24 -99.12 212.8 -110.04Q213.36 -120.96000000000001 207.20000000000002 -120.96000000000001Q200.48000000000002 -120.96000000000001 189.0 -114.52000000000001Q177.52 -108.08000000000001 163.52 -97.16000000000001Q149.52 -86.24000000000001 135.8 -73.08000000000001Q122.08000000000001 -59.92000000000001 111.44000000000001 -46.480000000000004Q104.72000000000001 -38.080000000000005 96.88000000000001 -29.960000000000004Q89.04 -21.840000000000003 77.84 -21.28Z" fill="#C9888C"/>
<path d="M336.56000000000006 1.6800000000000002Q332.08000000000004 0.0 324.80000000000007 -7.5600000000000005Q317.52000000000004 -15.120000000000001 311.9200000000001 -24.36Q306.32000000000005 -33.6 306.32000000000005 -39.760000000000005Q309.12000000000006 -45.92 313.88000000000005 -61.6Q318.64000000000004 -77.28 324.80000000000007 -96.88000000000001Q329.2800000000001 -103.04 331.80000000000007 -111.16000000000001Q334.32000000000005 -119.28000000000002 336.56000000000006 -126.00000000000001Q341.0400000000001 -136.08 346.6400000000001 -148.96Q352.24000000000007 -161.84 357.56000000000006 -175.28000000000003Q362.88000000000005 -188.72000000000003 367.36000000000007 -198.8Q375.20000000000005 -215.60000000000002 380.52000000000004 -228.20000000000002Q385.84000000000003 -240.8 391.1600000000001 -253.12Q396.4800000000001 -265.44 402.6400000000001 -280.56Q411.0400000000001 -297.92 418.0400000000001 -315.0Q425.0400000000001 -332.08000000000004 430.36000000000007 -345.52000000000004Q435.68000000000006 -358.96000000000004 436.80000000000007 -364.56000000000006Q436.24000000000007 -369.04 437.9200000000001 -371.0Q439.6000000000001 -372.96000000000004 442.4000000000001 -373.52000000000004Q445.20000000000005 -375.20000000000005 451.36000000000007 -375.76000000000005Q457.5200000000001 -376.32000000000005 459.7600000000001 -376.32000000000005Q466.4800000000001 -375.20000000000005 473.4800000000001 -365.40000000000003Q480.4800000000001 -355.6 480.4800000000001 -348.88000000000005Q480.4800000000001 -339.92 471.80000000000007 -315.56000000000006Q463.12000000000006 -291.20000000000005 446.8800000000001 -258.16Q427.2800000000001 -216.16000000000003 417.4800000000001 -193.20000000000002Q407.68000000000006 -170.24 404.32000000000005 -160.72000000000003Q400.96000000000004 -151.20000000000002 401.5200000000001 -148.4Q401.5200000000001 -148.4 406.0000000000001 -150.08Q410.4800000000001 -151.76000000000002 419.44000000000005 -157.92000000000002Q425.6000000000001 -161.84 433.44000000000005 -168.0Q441.2800000000001 -174.16000000000003 448.8400000000001 -179.20000000000002Q456.4000000000001 -184.24 460.8800000000001 -185.36Q463.68000000000006 -187.60000000000002 468.7200000000001 -190.96000000000004Q473.7600000000001 -194.32000000000002 478.24000000000007 -197.12Q488.8800000000001 -204.96 495.0400000000001 -202.16000000000003Q501.20000000000005 -199.36 506.24000000000007 -192.64000000000001Q512.4000000000001 -185.36 511.0000000000001 -177.24Q509.6000000000001 -169.12 493.36000000000007 -156.24Q481.0400000000001 -147.28 467.0400000000001 -139.16000000000003Q453.0400000000001 -131.04000000000002 441.56000000000006 -124.88000000000002Q430.08000000000004 -118.72000000000001 425.0400000000001 -114.80000000000001Q425.0400000000001 -114.80000000000001 430.08000000000004 -107.52000000000001Q435.12000000000006 -100.24000000000001 439.6000000000001 -93.52000000000001Q444.08000000000004 -84.56 450.80000000000007 -70.84Q457.5200000000001 -57.120000000000005 460.8800000000001 -51.52Q467.0400000000001 -42.56 473.4800000000001 -39.760000000000005Q479.9200000000001 -36.96 492.80000000000007 -41.440000000000005Q501.20000000000005 -43.68000000000001 507.08000000000004 -41.160000000000004Q512.96 -38.64 516.8800000000001 -33.040000000000006Q519.1200000000001 -28.560000000000002 519.1200000000001 -24.080000000000002Q519.1200000000001 -19.6 511.8400000000001 -13.440000000000001Q496.1600000000001 -2.8000000000000003 481.32000000000005 4.76Q466.4800000000001 12.32 453.0400000000001 3.3600000000000003Q441.2800000000001 -5.6000000000000005 430.9200000000001 -17.080000000000002Q420.56000000000006 -28.560000000000002 407.68000000000006 -45.36000000000001Q407.68000000000006 -47.6 404.32000000000005 -54.88Q400.96000000000004 -62.160000000000004 399.84000000000003 -63.28000000000001Q397.6 -67.76 395.08000000000004 -71.4Q392.56000000000006 -75.04 392.56000000000006 -75.04Q390.88000000000005 -81.2 388.36 -85.12Q385.84000000000003 -89.04 381.9200000000001 -89.60000000000001Q379.68000000000006 -87.92 376.88000000000005 -84.0Q374.08000000000004 -80.08000000000001 371.2800000000001 -74.48Q367.9200000000001 -66.08000000000001 364.56000000000006 -57.96000000000001Q361.20000000000005 -49.84 358.96000000000004 -40.6Q356.72 -31.360000000000003 356.1600000000001 -18.48Q356.72 -12.32 351.12000000000006 -5.32Q345.5200000000001 1.6800000000000002 336.56000000000006 1.6800000000000002Z" fill="#C9888C"/></g>
</svg>
