<svg xmlns="http://www.w3.org/2000/svg" viewBox="-13.66 -88.75 622.83 128.87">
<path d="M13.924121093750001 -72.6540283203125V-2.3860107421875Q13.924121093750001 -1.8450073242187501 14.217620849609375 -1.51800537109375Q14.51112060546875 -1.19100341796875 15.12412109375 -1.0780029296875L18.578100585937502 -0.59100341796875Q19.0301025390625 -0.552001953125 19.0301025390625 -0.252001953125Q19.0301025390625 0.0 18.6781005859375 0.0H2.243994140625Q2.15499267578125 0.0 2.0604919433593754 -0.08150024414062501Q1.9659912109375002 -0.16300048828125002 1.9659912109375002 -0.252001953125Q1.9659912109375002 -0.36500244140625004 2.12799072265625 -0.49000244140625004Q2.2899902343750003 -0.61500244140625 2.6399902343750004 -0.6650024414062501L6.019970703125001 -1.0780029296875Q6.6459716796875 -1.19100341796875 6.93297119140625 -1.51800537109375Q7.219970703125 -1.8450073242187501 7.219970703125 -2.31201171875V-68.9659912109375Q7.219970703125 -69.18099365234376 7.112469482421876 -69.32549438476563Q7.0049682617187505 -69.46999511718751 6.7029663085937505 -69.46999511718751H2.347998046875Q2.2199951171875 -69.46999511718751 2.1319946289062504 -69.55799560546876Q2.043994140625 -69.64599609375 2.043994140625 -69.73499755859375Q2.043994140625 -69.897998046875 2.1384948730468754 -69.96099853515625Q2.23299560546875 -70.0239990234375 2.39599609375 -70.07399902343751L12.79910888671875 -72.99302978515625Q13.1401123046875 -73.1060302734375 13.272613525390625 -73.11903076171875Q13.405114746093751 -73.13203125 13.5201171875 -73.13203125Q13.722119140625 -73.13203125 13.8231201171875 -72.98753051757812Q13.924121093750001 -72.84302978515625 13.924121093750001 -72.6540283203125ZM13.3861083984375 -34.65299072265625 13.056103515625 -34.99599609375 14.6861083984375 -36.48699951171875Q19.3441162109375 -40.754003906250006 22.53212890625 -42.42601318359375Q25.720141601562503 -44.0980224609375 28.8221435546875 -44.0980224609375Q33.494140625 -44.0980224609375 36.09863891601563 -40.94403076171875Q38.703137207031254 -37.7900390625 39.6361328125 -31.3260498046875L43.66512451171875 -2.9040039062500003Q43.76512451171875 -2.10400390625 44.175122070312504 -1.5735046386718752Q44.585119628906256 -1.0430053710937501 45.45711669921875 -0.9300048828125L48.319104003906254 -0.51700439453125Q48.52110595703125 -0.50400390625 48.609106445312506 -0.43450317382812503Q48.69710693359375 -0.36500244140625004 48.69710693359375 -0.252001953125Q48.69710693359375 -0.16300048828125002 48.609106445312506 -0.08150024414062501Q48.52110595703125 0.0 48.345104980468754 0.0H31.64599609375Q31.2199951171875 0.0 31.2199951171875 -0.252001953125Q31.2199951171875 -0.4780029296875 31.74599609375 -0.59100341796875L35.347973632812504 -1.0780029296875Q36.269970703125004 -1.19100341796875 36.606970214843756 -1.7215026855468751Q36.9439697265625 -2.252001953125 36.8439697265625 -2.9040039062500003L33.0099853515625 -30.684033203125Q32.2179931640625 -36.093994140625 30.326507568359375 -38.58797607421875Q28.43502197265625 -41.0819580078125 24.8220458984375 -41.0819580078125Q22.462060546875 -41.0819580078125 20.121575927734376 -39.88346557617188Q17.78109130859375 -38.684973144531256 14.9901123046875 -36.117993164062504Z" fill="#4F4A45"/>
<path d="M77.16898193359376 -4.6130004882812505V-4.86900634765625L76.8979736328125 -4.647998046875V-33.2301025390625Q76.8979736328125 -38.32305908203125 74.9369873046875 -40.982537841796876Q72.9760009765625 -43.6420166015625 68.9620361328125 -43.6420166015625Q64.5980712890625 -43.6420166015625 62.59908447265625 -41.630029296875Q60.60009765625 -39.6180419921875 60.60009765625 -37.522045898437504V-34.516015625Q60.60009765625 -32.75699462890625 59.51157836914062 -31.730474853515624Q58.42305908203125 -30.703955078125002 56.8020263671875 -30.703955078125002Q55.5320068359375 -30.703955078125002 54.68199462890625 -31.587963867187504Q53.831982421875004 -32.47197265625 53.831982421875004 -34.1919921875Q53.831982421875004 -36.682995605468754 55.65848999023438 -38.97150268554688Q57.484997558593754 -41.260009765625 61.039013671875 -42.716015625Q64.59302978515625 -44.172021484375 69.69505615234375 -44.172021484375Q76.74208984375 -44.172021484375 80.185107421875 -40.95301513671875Q83.62812500000001 -37.7340087890625 83.62812500000001 -32.065991210937504V-5.072021484375Q83.62812500000001 -2.8360351562500004 84.31962280273439 -1.90303955078125Q85.01112060546876 -0.9700439453125 86.05711669921875 -0.9700439453125Q87.02911376953125 -0.9700439453125 87.73561401367188 -1.5080444335937502Q88.4421142578125 -2.046044921875 88.568115234375 -3.0780517578125Q88.58111572265625 -3.2170532226562503 88.65611572265625 -3.2735534667968755Q88.73111572265626 -3.3300537109375004 88.7941162109375 -3.3300537109375004Q88.90711669921876 -3.3300537109375004 88.9451171875 -3.2735534667968755Q88.98311767578124 -3.2170532226562503 88.98311767578124 -3.0780517578125Q88.98311767578124 -2.33504638671875 88.38161010742188 -1.434033203125Q87.78010253906251 -0.53302001953125 86.49808349609376 0.1409912109375Q85.216064453125 0.81500244140625 83.180029296875 0.81500244140625Q80.2 0.81500244140625 78.68449096679689 -0.63800048828125Q77.16898193359376 -2.09100341796875 77.16898193359376 -4.6130004882812505ZM51.5499755859375 -9.4820068359375Q51.5499755859375 -14.38502197265625 55.612988281250004 -17.606524658203128Q59.676000976562506 -20.82802734375 67.6780517578125 -20.82802734375Q71.48203125 -20.82802734375 74.03351440429688 -20.112530517578126Q76.58499755859376 -19.39703369140625 78.7579833984375 -18.43603515625L78.47998046875 -18.1100341796875Q76.35499267578126 -19.03203125 73.99151000976563 -19.652026367187503Q71.62802734375 -20.272021484375003 68.748046875 -20.272021484375003Q63.69908447265625 -20.272021484375003 61.085601806640625 -17.602026367187502Q58.472119140625004 -14.932031250000001 58.472119140625004 -10.576025390625Q58.472119140625004 -6.26102294921875 60.913604736328125 -3.7245300292968753Q63.35509033203125 -1.188037109375 67.3420654296875 -1.188037109375Q70.19404296875001 -1.188037109375 72.92952270507813 -2.327532958984375Q75.66500244140624 -3.46702880859375 77.54898681640626 -5.7900146484375L77.95299072265625 -5.5380126953125Q75.65699462890626 -2.4430053710937503 71.87449340820314 -0.7955017089843751Q68.09199218750001 0.852001953125 63.739990234375 0.852001953125Q58.211987304687504 0.852001953125 54.8809814453125 -2.0260009765625004Q51.5499755859375 -4.904003906250001 51.5499755859375 -9.4820068359375Z" fill="#4F4A45"/>
<path d="M104.07412109375001 -43.85701904296875V-36.23704833984375V-35.983044433593754V21.098986816406253Q104.07412109375001 21.639990234375002 104.36762084960938 21.966992187500004Q104.66112060546875 22.293994140625003 105.27412109375001 22.40699462890625L109.46809082031251 22.893994140625Q109.74409179687501 22.943994140625 109.83209228515625 23.013494873046877Q109.9200927734375 23.082995605468753 109.9200927734375 23.23299560546875Q109.9200927734375 23.321997070312502 109.83209228515625 23.403497314453126Q109.74409179687501 23.48499755859375 109.5680908203125 23.48499755859375H93.13398437500001Q93.04498291015625 23.48499755859375 92.95048217773439 23.403497314453126Q92.85598144531251 23.321997070312502 92.85598144531251 23.23299560546875Q92.85598144531251 23.1199951171875 93.01798095703126 22.9949951171875Q93.17998046875 22.8699951171875 93.52998046875001 22.819995117187503L96.169970703125 22.40699462890625Q96.79597167968751 22.293994140625003 97.08297119140626 21.966992187500004Q97.369970703125 21.639990234375002 97.369970703125 21.17298583984375V-40.168981933593756Q97.369970703125 -40.383984375000004 97.26246948242188 -40.52848510742188Q97.15496826171875 -40.672985839843754 96.85296630859375 -40.672985839843754H92.49799804687501Q92.3699951171875 -40.672985839843754 92.28199462890626 -40.760986328125Q92.19399414062501 -40.84898681640625 92.19399414062501 -40.93798828125Q92.19399414062501 -41.100988769531256 92.28849487304689 -41.1639892578125Q92.38299560546875 -41.22698974609375 92.54599609375 -41.276989746093754L102.94910888671876 -44.196020507812506Q103.29011230468751 -44.30902099609375 103.42261352539063 -44.322021484375Q103.55511474609375 -44.33502197265625 103.67011718750001 -44.33502197265625Q103.872119140625 -44.33502197265625 103.9731201171875 -44.190521240234375Q104.07412109375001 -44.0460205078125 104.07412109375001 -43.85701904296875ZM103.45511474609376 -34.980029296875 103.1361083984375 -35.3620361328125Q106.87409667968751 -39.780029296875 110.72258911132813 -41.976025390625Q114.57108154296876 -44.172021484375 119.3040771484375 -44.172021484375Q124.25308837890626 -44.172021484375 128.23209228515626 -41.48602294921875Q132.21109619140626 -38.800024414062506 134.55459594726562 -33.96202392578125Q136.89809570312502 -29.1240234375 136.89809570312502 -22.655017089843753Q136.89809570312502 -15.1920166015625 134.23409423828127 -9.8630126953125Q131.57009277343752 -4.5340087890625 127.09558715820313 -1.7300048828124999Q122.62108154296875 1.0739990234375 117.23306884765626 1.0739990234375Q112.1520751953125 1.0739990234375 108.64558715820313 -1.07799072265625Q105.13909912109375 -3.22998046875 102.72510986328126 -7.7969604492187505L103.24812011718751 -8.06396484375Q105.19510498046876 -4.29898681640625 108.29608154296875 -2.2260009765625Q111.39705810546876 -0.15301513671875 115.08603515625 -0.15301513671875Q119.29901123046875 -0.15301513671875 122.689990234375 -2.340509033203125Q126.08096923828126 -4.5280029296875 128.04295654296874 -9.202001953125Q130.00494384765625 -13.876000976562501 130.00494384765625 -21.303015136718752Q130.00494384765625 -28.618017578125002 128.20595703125002 -33.331512451171875Q126.40697021484377 -38.04500732421875 123.31049194335938 -40.35750122070313Q120.21401367187501 -42.669995117187504 116.36403808593751 -42.669995117187504Q113.66104736328126 -42.669995117187504 110.28206787109376 -40.84650268554688Q106.90308837890626 -39.02301025390625 103.45511474609376 -34.980029296875Z" fill="#4F4A45"/>
<path d="M153.37412109375 -43.85701904296875V-36.23704833984375V-35.983044433593754V21.098986816406253Q153.37412109375 21.639990234375002 153.6676208496094 21.966992187500004Q153.96112060546878 22.293994140625003 154.57412109375002 22.40699462890625L158.76809082031252 22.893994140625Q159.04409179687502 22.943994140625 159.13209228515626 23.013494873046877Q159.22009277343753 23.082995605468753 159.22009277343753 23.23299560546875Q159.22009277343753 23.321997070312502 159.13209228515626 23.403497314453126Q159.04409179687502 23.48499755859375 158.86809082031252 23.48499755859375H142.43398437500002Q142.34498291015626 23.48499755859375 142.2504821777344 23.403497314453126Q142.1559814453125 23.321997070312502 142.1559814453125 23.23299560546875Q142.1559814453125 23.1199951171875 142.31798095703127 22.9949951171875Q142.47998046875003 22.8699951171875 142.82998046875002 22.819995117187503L145.46997070312503 22.40699462890625Q146.09597167968752 22.293994140625003 146.38297119140628 21.966992187500004Q146.66997070312502 21.639990234375002 146.66997070312502 21.17298583984375V-40.168981933593756Q146.66997070312502 -40.383984375000004 146.56246948242188 -40.52848510742188Q146.45496826171876 -40.672985839843754 146.15296630859376 -40.672985839843754H141.79799804687502Q141.6699951171875 -40.672985839843754 141.58199462890627 -40.760986328125Q141.493994140625 -40.84898681640625 141.493994140625 -40.93798828125Q141.493994140625 -41.100988769531256 141.5884948730469 -41.1639892578125Q141.68299560546876 -41.22698974609375 141.84599609375002 -41.276989746093754L152.24910888671877 -44.196020507812506Q152.59011230468752 -44.30902099609375 152.72261352539064 -44.322021484375Q152.85511474609376 -44.33502197265625 152.97011718750002 -44.33502197265625Q153.17211914062503 -44.33502197265625 153.27312011718752 -44.190521240234375Q153.37412109375 -44.0460205078125 153.37412109375 -43.85701904296875ZM152.75511474609377 -34.980029296875 152.4361083984375 -35.3620361328125Q156.17409667968752 -39.780029296875 160.02258911132816 -41.976025390625Q163.87108154296877 -44.172021484375 168.6040771484375 -44.172021484375Q173.55308837890627 -44.172021484375 177.53209228515627 -41.48602294921875Q181.51109619140627 -38.800024414062506 183.85459594726564 -33.96202392578125Q186.19809570312503 -29.1240234375 186.19809570312503 -22.655017089843753Q186.19809570312503 -15.1920166015625 183.53409423828128 -9.8630126953125Q180.87009277343753 -4.5340087890625 176.39558715820317 -1.7300048828124999Q171.92108154296878 1.0739990234375 166.53306884765627 1.0739990234375Q161.45207519531252 1.0739990234375 157.94558715820312 -1.07799072265625Q154.43909912109376 -3.22998046875 152.02510986328127 -7.7969604492187505L152.54812011718752 -8.06396484375Q154.49510498046877 -4.29898681640625 157.59608154296876 -2.2260009765625Q160.69705810546878 -0.15301513671875 164.38603515625002 -0.15301513671875Q168.59901123046876 -0.15301513671875 171.989990234375 -2.340509033203125Q175.38096923828127 -4.5280029296875 177.34295654296875 -9.202001953125Q179.30494384765626 -13.876000976562501 179.30494384765626 -21.303015136718752Q179.30494384765626 -28.618017578125002 177.50595703125003 -33.331512451171875Q175.70697021484378 -38.04500732421875 172.61049194335942 -40.35750122070313Q169.51401367187503 -42.669995117187504 165.66403808593753 -42.669995117187504Q162.96104736328127 -42.669995117187504 159.58206787109378 -40.84650268554688Q156.20308837890627 -39.02301025390625 152.75511474609377 -34.980029296875Z" fill="#4F4A45"/>
<path d="M214.26712646484378 -6.66112060546875 210.84505615234377 1.9700683593750001 194.92202148437502 -37.28697509765625Q193.82901611328128 -39.935986328125004 192.2615173339844 -41.089001464843754Q190.69401855468752 -42.242016601562504 188.63702392578128 -42.518017578125004Q188.3070190429688 -42.5940185546875 188.23101806640628 -42.68201904296875Q188.15501708984377 -42.77001953125 188.15501708984377 -42.846020507812504Q188.15501708984377 -42.985021972656256 188.24951782226566 -43.04152221679688Q188.34401855468752 -43.0980224609375 188.50701904296878 -43.0980224609375H206.90513916015627Q207.11813964843753 -43.0980224609375 207.20614013671877 -43.0230224609375Q207.29414062500004 -42.9480224609375 207.29414062500004 -42.772021484375Q207.29414062500004 -42.609020996093754 207.18764038085942 -42.53402099609376Q207.08114013671877 -42.459020996093756 206.87913818359377 -42.433020019531256L202.51816406250003 -41.946020507812506Q201.3791625976563 -41.820019531250004 201.12266235351566 -41.027014160156256Q200.86616210937504 -40.2340087890625 201.33516845703127 -39.0699951171875ZM205.26213378906252 15.128869628906251 211.78408203125002 -1.2800048828125001 212.30108642578128 -2.6050170898437504 225.72807617187505 -36.7440185546875Q226.73907470703128 -39.318017578125 226.21307373046878 -40.47901611328125Q225.68707275390628 -41.6400146484375 223.8870727539063 -41.918017578125L220.82108154296878 -42.3960205078125Q220.54508056640628 -42.459020996093756 220.42008056640628 -42.522021484375Q220.29508056640628 -42.58502197265625 220.29508056640628 -42.735021972656256Q220.29508056640628 -42.911022949218754 220.38958129882815 -43.00452270507813Q220.48408203125004 -43.0980224609375 220.68408203125003 -43.0980224609375H232.92108154296878Q233.17108154296878 -43.0980224609375 233.2775817871094 -43.00452270507813Q233.38408203125005 -42.911022949218754 233.38408203125005 -42.772021484375Q233.38408203125005 -42.622021484375004 233.2775817871094 -42.55902099609375Q233.17108154296878 -42.4960205078125 232.89508056640628 -42.433020019531256Q230.5850708007813 -42.116015625 229.0380737304688 -40.83551635742188Q227.4910766601563 -39.55501708984375 226.41707763671877 -36.80501708984375L205.74913330078127 15.475878906250001Q204.54611816406253 18.582922363281252 203.4531127929688 20.591448974609378Q202.36010742187503 22.5999755859375 200.97609863281252 23.54998779296875Q199.59208984375002 24.5 197.46406250000004 24.5Q194.58603515625003 24.5 192.81251831054692 22.824481201171878Q191.03900146484378 21.148962402343752 191.03900146484378 18.67493896484375Q191.03900146484378 17.12291259765625 191.89001464843753 16.18489990234375Q192.74102783203128 15.24688720703125 194.05904541015627 15.24688720703125Q195.22506103515627 15.24688720703125 195.94907226562503 16.098394775390624Q196.67308349609377 16.94990234375 196.94609375000002 18.332922363281252L197.19310302734377 19.82293701171875Q197.36210937500002 21.115942382812502 197.95311279296877 22.012951660156254Q198.54411621093752 22.909960937500003 199.59812011718753 22.909960937500003Q200.54812011718752 22.909960937500003 201.44812011718753 22.077447509765626Q202.34812011718753 21.24493408203125 203.2946228027344 19.510913085937503Q204.24112548828128 17.776892089843752 205.26213378906252 15.128869628906251Z" fill="#4F4A45"/>
<path d="M249.81774902343753 -26.2239501953125Q250.47375488281253 -28.677954101562502 251.3517578125 -31.84395751953125Q252.22976074218752 -35.009960937500004 253.36375732421877 -39.074951171875Q254.49775390625 -43.13994140625 255.9367431640625 -48.252905273437506Q257.375732421875 -53.365869140625 259.1297119140625 -59.6617919921875Q260.2517333984375 -63.7138671875 262.1497802734375 -66.11890869140626Q264.04782714843753 -68.52395019531251 266.35588378906255 -69.57796630859376Q268.6639404296875 -70.63198242187501 270.99399414062503 -70.63198242187501Q272.633984375 -70.63198242187501 274.14697265625 -69.77200927734376Q275.65996093750005 -68.9120361328125 277.14494628906255 -67.774072265625Q278.62993164062505 -66.6361083984375 280.1699096679688 -65.77613525390626Q281.70988769531255 -64.91616210937501 283.37785644531255 -64.91616210937501Q285.2498291015625 -64.91616210937501 286.2958129882812 -65.8431396484375Q287.341796875 -66.7701171875 287.341796875 -68.140087890625Q287.341796875 -70.08803710937501 285.20085449218755 -71.37800292968751Q283.05991210937503 -72.66796875 278.81401367187505 -72.66796875Q269.72001953125005 -72.66796875 263.238037109375 -69.84199218750001Q256.7560546875 -67.01601562500001 252.5230712890625 -61.332043457031254Q248.29008789062502 -55.6480712890625 245.94208984375 -47.086083984375L233.95803222656252 -3.51591796875Q233.54204101562502 -1.9259521484375002 233.5900390625 -0.9579711914062501Q233.63803710937503 0.010009765625 234.40401611328127 0.44000244140625Q235.1699951171875 0.8699951171875 236.8699462890625 0.8699951171875Q239.66386718750002 0.8699951171875 241.62281494140626 0.4260009765625Q243.58176269531253 -0.0179931640625 244.63073730468753 -0.81898193359375Q245.67971191406252 -1.6199707031250001 245.67971191406252 -2.7299560546875004Q245.67971191406252 -3.4679443359375 245.30971679687502 -4.0359375Q244.93972167968752 -4.6039306640625 244.93972167968752 -5.5199218750000005Q244.93972167968752 -6.6399169921875005 245.16972656250002 -8.204919433593751Q245.3997314453125 -9.769921875000001 246.06374511718752 -12.578955078125002Q246.72775878906253 -15.387988281250001 248.00378417968753 -20.128076171875Q249.32578125000003 -25.0340576171875 251.70679931640626 -29.0550537109375Q254.08781738281252 -33.0760498046875 256.9658447265625 -35.979052734375Q259.8438720703125 -38.882055664062506 262.6828979492187 -40.39705810546876Q265.521923828125 -41.912060546875004 267.73593750000003 -41.782055664062504Q269.7319580078125 -41.652050781250004 270.60495605468753 -40.1510498046875Q271.47795410156255 -38.650048828125 271.10595703125 -36.000048828125Q270.53996582031255 -32.0040771484375 267.8699584960938 -28.51107177734375Q265.199951171875 -25.01806640625 259.99591064453125 -22.32904052734375Q254.79187011718753 -19.6400146484375 246.59777832031253 -18.0559814453125L246.72177734375003 -17.2659912109375Q258.55974121093755 -19.456005859375 265.81572265625005 -22.350024414062503Q273.07170410156255 -25.24404296875 276.5756958007813 -28.7010498046875Q280.07968750000003 -32.158056640625 280.57568359375 -35.986035156250004Q281.1416748046875 -40.029980468750004 279.0287109375 -42.303967285156254Q276.91574707031253 -44.577954101562504 272.75375976562503 -44.733959960937504Q269.41977539062503 -44.863964843750004 265.9047729492188 -43.46096191406251Q262.3897705078125 -42.057958984375006 259.103759765625 -39.39895019531251Q255.81774902343753 -36.739941406250004 253.17073974609377 -33.08992919921875Q250.52373046875002 -29.439916992187502 248.9517333984375 -25.101904296875002ZM254.8518798828125 -19.68603515625 258.3939208984375 -6.207958984375001Q259.37192382812503 -2.3219726562500003 261.1078979492188 -0.7259887695312501Q262.8438720703125 0.8699951171875 265.525830078125 0.8699951171875Q267.92778320312505 0.8699951171875 269.916748046875 0.04400634765625Q271.905712890625 -0.781982421875 273.61768798828126 -2.6319580078125Q275.3296630859375 -4.48193359375 276.8116455078125 -7.587890625Q276.9116455078125 -7.8118896484375 276.90064697265626 -7.94788818359375Q276.8896484375 -8.08388671875 276.7656494140625 -8.13388671875Q276.64165039062505 -8.23388671875 276.5056518554688 -8.15888671875Q276.3696533203125 -8.08388671875 276.2696533203125 -7.93388671875Q274.853662109375 -5.73388671875 273.6826538085938 -4.84188232421875Q272.51164550781255 -3.9498779296875 271.41965332031253 -3.9498779296875Q270.16765136718755 -3.9498779296875 269.29365234375007 -4.99288330078125Q268.41965332031253 -6.035888671875 267.6616455078125 -8.4879150390625L263.3236328125 -22.2879638671875Z" fill="#4F4A45"/>
<path d="M285.1340576171875 -34.9460693359375Q285.03605957031255 -34.9980712890625 285.0490600585938 -35.134069824218756Q285.06206054687505 -35.270068359375 285.23405761718755 -35.5640625Q287.05004882812506 -38.33603515625 289.24401855468756 -40.335009765625Q291.43798828125006 -42.333984375 293.8559448242188 -43.403967285156256Q296.27390136718753 -44.473950195312504 298.64985351562507 -44.473950195312504Q301.1338134765625 -44.473950195312504 302.3328002929688 -43.34996337890625Q303.53178710937505 -42.2259765625 303.53178710937505 -40.135986328125Q303.53178710937505 -38.4380126953125 303.0257934570313 -36.50703125Q302.5197998046875 -34.5760498046875 301.622802734375 -32.0760498046875Q300.72580566406253 -29.5760498046875 299.5657958984375 -26.225024414062503Q298.4057861328125 -22.873999023437502 297.0737548828125 -18.3359375L296.68576660156253 -18.5079345703125Q298.48376464843756 -24.109912109375003 300.8227661132813 -28.833911132812503Q303.161767578125 -33.55791015625 305.85076904296875 -37.067919921875Q308.53977050781253 -40.5779296875 311.4267700195313 -42.52593994140625Q314.31376953125005 -44.473950195312504 317.23376464843756 -44.473950195312504Q320.04572753906257 -44.473950195312504 321.3447143554688 -42.489990234375Q322.643701171875 -40.5060302734375 322.30771484375003 -37.58408203125Q322.0437255859375 -35.560131835937504 321.18974609375005 -34.103161621093754Q320.33576660156257 -32.646191406250004 319.0647949218751 -31.860205078125002Q317.79382324218756 -31.07421875 316.25385742187507 -31.07421875Q314.69589843750003 -31.07421875 313.7079223632813 -31.855200195312502Q312.71994628906253 -32.636181640625004 312.71994628906253 -34.14013671875Q312.71994628906253 -35.1561279296875 312.9559448242188 -36.0701171875Q313.19194335937505 -36.9841064453125 313.19194335937505 -37.802099609375Q313.19194335937505 -38.7781005859375 312.8799438476563 -39.31810302734375Q312.56794433593757 -39.858105468750004 311.78994140625 -39.858105468750004Q309.88391113281256 -39.858105468750004 307.2788696289063 -37.2270751953125Q304.67382812500006 -34.596044921875 301.9037841796876 -29.302978515625Q299.13374023437507 -24.009912109375 296.71970214843753 -15.999804687500001Q295.80170898437507 -12.8558349609375 295.18071289062505 -10.618859863281251Q294.559716796875 -8.381884765625001 294.559716796875 -6.7798828125Q294.559716796875 -5.7499023437500005 295.0447021484375 -5.14591064453125Q295.5296875 -4.5419189453125 296.0146728515625 -4.144921875Q296.499658203125 -3.7479248046875 296.499658203125 -3.2779296875000004Q296.499658203125 -2.5599365234375 295.14069824218757 -1.56595458984375Q293.78173828125006 -0.57197265625 291.5108032226563 0.14901123046874998Q289.23986816406256 0.8699951171875 286.5659423828125 0.8699951171875Q284.8559814453125 0.8699951171875 284.1150024414063 0.18100585937499997Q283.37402343750006 -0.5079833984375001 283.4060302734375 -1.8289672851562502Q283.43803710937505 -3.149951171875 284.0100341796875 -5.083935546875001L292.32006835937506 -32.1139892578125Q293.74208984375 -36.650048828125 293.5130859375 -38.22406005859375Q293.28408203125 -39.798071289062506 291.8940673828125 -39.798071289062506Q290.86606445312503 -39.798071289062506 289.4720581054688 -38.896069335937504Q288.07805175781255 -37.9940673828125 285.80004882812506 -35.3380615234375Q285.60405273437505 -35.0920654296875 285.4430541992188 -35.00606689453125Q285.28205566406257 -34.920068359375 285.1340576171875 -34.9460693359375Z" fill="#4F4A45"/>
<path d="M326.93786621093756 -21.082006835937502Q326.93786621093756 -21.082006835937502 328.8388793945313 -21.767016601562503Q330.739892578125 -22.4520263671875 333.70791015625 -23.529040527343753Q336.675927734375 -24.606054687500002 339.91494140625 -25.78206787109375Q343.153955078125 -26.9580810546875 345.90495605468755 -27.928088378906253Q348.65595703125007 -28.898095703125 350.08593750000006 -29.370092773437502L349.06196289062507 -28.432104492187502Q349.57194824218755 -29.61806640625 349.91093750000005 -31.42501220703125Q350.24992675781255 -33.2319580078125 350.27392578125006 -35.847900390625Q350.29792480468757 -39.317919921875 349.19290771484384 -41.51494140625Q348.08789062500006 -43.711962890625 346.16586914062503 -43.711962890625Q343.98583984375006 -43.711962890625 341.8188110351563 -42.086950683593756Q339.65178222656255 -40.4619384765625 337.72575683593755 -37.40391845703125Q335.79973144531255 -34.345898437500004 334.33171386718755 -30.031872558593754Q332.86369628906255 -25.7178466796875 332.1076904296875 -20.313818359375002Q331.0296875 -12.5898193359375 333.4936889648438 -8.44482421875Q335.95769042968755 -4.2998291015625005 341.31965332031257 -4.2998291015625005Q344.207666015625 -4.2998291015625005 346.79367675781253 -5.5078369140625005Q349.37968750000005 -6.7158447265625005 351.5736938476563 -9.19486083984375Q353.76770019531256 -11.673876953125001 355.46569824218756 -15.4759033203125Q355.63769531250006 -15.7739013671875 355.7726928710938 -15.898901367187502Q355.90769042968753 -16.023901367187502 356.081689453125 -15.9759033203125Q356.2536865234375 -15.951904296875 356.30368652343753 -15.7299072265625Q356.35368652343755 -15.50791015625 356.20568847656256 -15.159912109375Q354.18171386718757 -10.0699462890625 351.0717407226563 -6.47796630859375Q347.96176757812503 -2.885986328125 343.84379882812505 -1.00799560546875Q339.72583007812506 0.8699951171875 334.66386718750005 0.8699951171875Q330.00791015625003 0.8699951171875 326.7639404296875 -1.28399658203125Q323.51997070312507 -3.43798828125 322.110986328125 -7.6729736328125Q320.70200195312503 -11.907958984375 321.50200195312505 -18.0619384765625Q322.22800292968753 -23.533935546875 324.48699951171875 -28.3579345703125Q326.74599609375 -33.18193359375 330.1579833984375 -36.858935546875Q333.569970703125 -40.5359375 337.76694335937503 -42.62493896484375Q341.96391601562505 -44.713940429687504 346.54187011718756 -44.713940429687504Q350.42780761718757 -44.713940429687504 352.96577148437507 -43.1009521484375Q355.50373535156257 -41.4879638671875 356.72672119140634 -38.86898193359375Q357.94970703125006 -36.25 357.85371093750007 -33.22001953125Q357.82971191406256 -32.648022460937504 358.1307128906251 -32.3540283203125Q358.43171386718757 -32.0600341796875 359.22570800781256 -32.09404296875Q359.54770507812503 -32.1220458984375 359.6737060546875 -32.03604736328125Q359.79970703125 -31.950048828125002 359.8257080078125 -31.800048828125Q359.8777099609375 -31.648046875000002 359.76470947265625 -31.5240478515625Q359.65170898437503 -31.400048828125 359.38171386718756 -31.300048828125Q358.77172851562506 -31.1280517578125 356.18774414062506 -30.2510498046875Q353.60375976562506 -29.3740478515625 349.9577758789063 -28.10804443359375Q346.3117919921875 -26.842041015625 342.351806640625 -25.4870361328125Q338.39182128906253 -24.13203125 334.9408325195313 -22.9270263671875Q331.48984375000003 -21.722021484375002 329.3338500976563 -20.9690185546875Q327.17785644531256 -20.216015625 327.17785644531256 -20.216015625Z" fill="#4F4A45"/>
<path d="M396.75969238281255 -11.345971679687501Q395.42568359375 -6.23193359375 395.6226806640625 -4.63492431640625Q395.81967773437503 -3.0379150390625003 397.23369140625005 -3.0379150390625003Q398.31169433593755 -3.0379150390625003 399.6087036132813 -3.9399169921875004Q400.90571289062507 -4.8419189453125 402.871728515625 -7.3059326171875005Q403.13972167968757 -7.671923828125 403.26472167968757 -7.78292236328125Q403.38972167968757 -7.8939208984375 403.53771972656256 -7.8419189453125Q403.70971679687506 -7.81591796875 403.68371582031256 -7.5709228515625Q403.65771484375006 -7.325927734375 403.43771972656253 -6.887939453125Q401.3257080078125 -3.3279541015625003 398.1577514648438 -1.2289794921875001Q394.98979492187505 0.8699951171875 390.981884765625 0.8699951171875Q388.31394042968753 0.8699951171875 387.0899536132813 -0.3389892578125Q385.86596679687506 -1.5479736328125 385.86596679687506 -3.8779541015625Q385.86596679687506 -4.807958984375 386.1059692382813 -6.3209716796875Q386.3459716796875 -7.833984375 386.84197998046875 -9.95301513671875Q387.33798828125003 -12.072045898437501 388.08100585937507 -14.795104980468752Q388.82402343750005 -17.518164062500002 389.7800537109375 -20.868261718750002L390.19804687500005 -20.668261718750003Q387.70202636718756 -14.108203125000001 384.74799804687507 -9.272143554687501Q381.7939697265625 -4.436083984375 378.2469482421875 -1.78304443359375Q374.69992675781253 0.8699951171875 370.3999267578125 0.8699951171875Q365.561962890625 0.8699951171875 363.07598876953125 -2.78701171875Q360.59001464843755 -6.4440185546875 361.55205078125005 -14.028076171875Q362.02006835937505 -18.814062500000002 363.97907714843757 -23.30904541015625Q365.93808593750003 -27.8040283203125 369.0600830078125 -31.637011718750003Q372.182080078125 -35.4699951171875 376.2050659179688 -38.3559814453125Q380.2280517578125 -41.2419677734375 384.85002441406255 -42.87095947265625Q389.4719970703125 -44.499951171875004 394.4299560546875 -44.499951171875004Q397.78989257812503 -44.499951171875004 400.4568237304688 -44.0089599609375Q403.12375488281253 -43.51796875 404.67470703125 -42.89097900390625Q406.22565917968757 -42.263989257812504 406.22565917968757 -41.8179931640625Q406.22565917968757 -41.373999023437506 405.8096679687501 -41.15999755859376Q405.39367675781256 -40.945996093750004 404.95368652343757 -40.72099609375Q404.5136962890625 -40.49599609375 404.36569824218753 -39.956005859375004ZM371.58173828125 -12.638085937500001Q370.74970703125 -7.1100097656250005 371.9707275390625 -4.72796630859375Q373.19174804687503 -2.3459228515625 375.2337890625 -2.3459228515625Q376.9278076171875 -2.3459228515625 378.7518310546875 -3.7359252929687505Q380.57585449218755 -5.125927734375001 382.4898803710938 -7.958935546875001Q384.40390625000003 -10.791943359375 386.38093261718757 -15.059960937500001Q388.35795898437505 -19.327978515625002 390.35698242187505 -25.059008789062503Q392.35600585937505 -30.7900390625 394.34802246093756 -38.0120849609375Q395.060009765625 -40.632031250000004 394.8660034179688 -42.058996582031256Q394.67199707031256 -43.4859619140625 392.91000976562503 -43.4859619140625Q389.94396972656256 -43.4859619140625 387.0729370117188 -41.728979492187506Q384.20190429687506 -39.971997070312504 381.64887695312507 -36.922021484375Q379.095849609375 -33.8720458984375 377.0338256835938 -29.91806640625Q374.97180175781256 -25.964086914062502 373.54978027343753 -21.547094726562502Q372.1277587890625 -17.130102539062502 371.58173828125 -12.638085937500001Z" fill="#4F4A45"/>
<path d="M418.46005859375003 -42.165966796875004 414.3460205078125 -42.715966796875Q414.07402343750005 -42.7899658203125 413.9880249023438 -42.9129638671875Q413.90202636718755 -43.035961914062504 413.90202636718755 -43.1839599609375Q413.90202636718755 -43.3819580078125 414.0630249023438 -43.492956542968756Q414.2240234375 -43.603955078125004 414.44602050781253 -43.603955078125004H419.78203125000005Q420.18203125 -43.603955078125004 420.4430297851563 -43.690954589843756Q420.70402832031255 -43.7779541015625 421.02202148437505 -44.051953125000004L431.23974609375006 -52.3978759765625Q431.41174316406256 -52.5478759765625 431.60773925781257 -52.6728759765625Q431.8037353515625 -52.7978759765625 432.04973144531255 -52.7978759765625Q432.22172851562505 -52.7978759765625 432.3337280273438 -52.662878417968756Q432.44572753906255 -52.527880859375 432.44572753906255 -52.305883789062506Q432.44572753906255 -52.1558837890625 432.39572753906253 -51.92088623046875Q432.3457275390625 -51.685888671875006 432.24572753906256 -51.2618896484375L420.66972656250005 -10.071923828125001Q419.4917236328125 -5.8359130859375 420.04072265625007 -4.4369140625000005Q420.58972167968756 -3.0379150390625003 422.0977294921875 -3.0379150390625003Q423.78173828125006 -3.0379150390625003 425.6047485351563 -4.367919921875Q427.4277587890625 -5.6979248046875 429.59177246093753 -8.5059326171875Q429.8357666015625 -8.871923828125 429.98576660156255 -8.98292236328125Q430.1357666015625 -9.093920898437501 430.257763671875 -9.041918945312501Q430.4297607421875 -9.015917968750001 430.4157592773438 -8.770922851562501Q430.4017578125 -8.525927734375001 430.15776367187505 -8.087939453125001Q429.00375976562503 -6.14794921875 427.4517700195313 -4.5099609375Q425.89978027343756 -2.87197265625 424.0358032226563 -1.656982421875Q422.171826171875 -0.4419921875 420.0318603515625 0.21400146484375Q417.89189453125005 0.8699951171875 415.51193847656253 0.8699951171875Q412.831982421875 0.8699951171875 411.39100341796876 -0.08299560546875007Q409.9500244140625 -1.0359863281250001 409.73002929687505 -3.1449707031250003Q409.5100341796875 -5.253955078125 410.45402832031255 -8.6099365234375L419.2720458984375 -39.805981445312504Q419.62204589843753 -41.027978515625 419.4510498046875 -41.5479736328125Q419.2800537109375 -42.067968750000006 418.46005859375003 -42.165966796875004ZM427.78378906250003 -42.76796875 428.2497802734375 -43.603955078125004H438.75781250000006Q439.27380371093756 -43.603955078125004 439.27380371093756 -43.2359619140625Q439.27380371093756 -42.989965820312506 439.0508056640625 -42.87896728515625Q438.82780761718755 -42.76796875 438.45581054687506 -42.76796875Z" fill="#4F4A45"/>
<path d="M449.37773437500005 -10.513940429687501Q447.9437255859375 -6.099926757812501 448.3337280273438 -4.568920898437501Q448.72373046875003 -3.0379150390625003 450.03374023437505 -3.0379150390625003Q451.11174316406255 -3.0379150390625003 452.44775390625 -3.9399169921875004Q453.7837646484375 -4.8419189453125 455.7497802734375 -7.3059326171875005Q456.0177734375 -7.671923828125 456.1427734375 -7.78292236328125Q456.2677734375 -7.8939208984375 456.415771484375 -7.8419189453125Q456.5877685546875 -7.81591796875 456.561767578125 -7.5709228515625Q456.5357666015625 -7.325927734375 456.31577148437503 -6.887939453125Q454.203759765625 -3.3279541015625003 450.97580566406253 -1.2289794921875001Q447.74785156250005 0.8699951171875 443.3799560546875 0.8699951171875Q440.80600585937503 0.8699951171875 439.4730224609375 -0.13399658203124998Q438.1400390625 -1.13798828125 438.0260375976563 -3.2209716796875Q437.91203613281255 -5.303955078125 438.93203125 -8.4539306640625L446.6980712890625 -32.0619873046875Q448.19609375000005 -36.546044921875 447.9550903320313 -38.17205810546875Q447.71408691406253 -39.798071289062506 446.29807128906253 -39.798071289062506Q445.27006835937505 -39.798071289062506 443.8760620117188 -38.896069335937504Q442.4820556640625 -37.9940673828125 440.204052734375 -35.3380615234375Q440.008056640625 -35.116064453125 439.85905761718755 -35.01806640625Q439.71005859375003 -34.920068359375 439.53806152343753 -34.9460693359375Q439.41606445312505 -34.9980712890625 439.45306396484375 -35.15806884765625Q439.4900634765625 -35.318066406250004 439.6380615234375 -35.5640625Q442.350048828125 -39.7500244140625 445.75799560546875 -42.1119873046875Q449.16594238281255 -44.473950195312504 452.765869140625 -44.473950195312504Q455.05583496093755 -44.473950195312504 456.4488159179688 -43.4099609375Q457.841796875 -42.3459716796875 458.1087890625 -40.12498779296875Q458.37578125000005 -37.904003906250004 457.227783203125 -34.42001953125ZM454.94394531250003 -51.420068359375Q452.8780029296875 -51.420068359375 451.77703857421875 -52.50404052734375Q450.67607421875005 -53.5880126953125 450.67607421875005 -55.26796875Q450.67607421875005 -57.0359375 451.733056640625 -59.121923828125006Q452.7900390625 -61.20791015625 454.5530029296875 -62.70390625Q456.31596679687505 -64.19990234375 458.4839111328125 -64.19990234375Q460.9318359375 -64.19990234375 461.9838012695312 -63.1029296875Q463.0357666015625 -62.005957031250006 463.0357666015625 -60.3760009765625Q463.0357666015625 -58.284033203125006 462.0157836914062 -56.21104736328125Q460.99580078125 -54.1380615234375 459.1728393554688 -52.77906494140625Q457.3498779296875 -51.420068359375 454.94394531250003 -51.420068359375Z" fill="#4F4A45"/>
<path d="M488.74589843750005 -44.609936523437504Q493.991845703125 -44.453930664062504 497.6598022460938 -41.8539306640625Q501.32775878906256 -39.2539306640625 502.97172851562505 -34.554931640625Q504.61569824218753 -29.855932617187502 503.70568847656256 -23.425927734375Q503.02568359375005 -18.365942382812502 500.9146850585938 -13.9549560546875Q498.80368652343753 -9.5439697265625 495.49470214843757 -6.21798095703125Q492.18571777343755 -2.8919921875 487.8857543945313 -1.01099853515625Q483.58579101562503 0.8699951171875 478.5278564453125 0.8699951171875Q473.60190429687503 0.8699951171875 469.7739379882813 -1.53499755859375Q465.94597167968755 -3.939990234375 464.0799926757813 -8.57398681640625Q462.214013671875 -13.2079833984375 463.10002441406255 -19.821997070312502Q463.88203125000007 -25.393994140625 466.1470336914063 -29.985986328125Q468.41203613281255 -34.577978515625 471.85102539062507 -37.90596923828125Q475.29001464843753 -41.233959960937504 479.59698486328125 -42.999951171875004Q483.903955078125 -44.765942382812504 488.74589843750005 -44.609936523437504ZM478.5798583984375 -0.2259765625Q480.54587402343753 -0.2259765625 482.5828857421875 -2.0949462890625Q484.6198974609375 -3.963916015625 486.5299072265625 -7.130871582031251Q488.43991699218753 -10.2978271484375 490.02392578125 -14.213781738281252Q491.6079345703125 -18.129736328125002 492.69194335937505 -22.270703125000004Q493.77595214843757 -26.411669921875003 494.1379638671875 -30.231665039062502Q494.81198730468753 -34.903759765625004 494.29498291015625 -37.78282470703125Q493.777978515625 -40.6618896484375 492.3879516601563 -42.022924804687506Q490.99792480468756 -43.3839599609375 489.031884765625 -43.51396484375Q486.98986816406256 -43.61796875 484.8488525390626 -41.814001464843756Q482.70783691406257 -40.0100341796875 480.6938232421876 -36.8560791015625Q478.67980957031256 -33.7021240234375 476.9917968750001 -29.7211669921875Q475.30378417968757 -25.740209960937502 474.1527709960938 -21.43023681640625Q473.00175781250005 -17.120263671875 472.58974609375 -13.0402587890625Q471.913720703125 -8.16015625 472.57573242187505 -5.35909423828125Q473.23774414062507 -2.5580322265625 474.84777832031256 -1.3920043945312501Q476.45781250000005 -0.2259765625 478.5798583984375 -0.2259765625Z" fill="#4F4A45"/>
<path d="M510.23405761718755 -34.9460693359375Q510.11206054687506 -34.9980712890625 510.1490600585938 -35.170068359375Q510.1860595703126 -35.3420654296875 510.33405761718757 -35.5640625Q513.046044921875 -39.7500244140625 516.6219848632813 -42.1119873046875Q520.1979248046875 -44.473950195312504 523.7498535156251 -44.473950195312504Q526.1378173828126 -44.473950195312504 527.3848022460938 -43.385961914062506Q528.6317871093751 -42.2979736328125 528.6317871093751 -40.013989257812504Q528.6317871093751 -38.389990234375 527.9997802734376 -36.027978515625Q527.3677734375001 -33.665966796875004 526.5087646484376 -31.2009521484375Q525.6497558593751 -28.735937500000002 524.9067504882813 -26.690930175781254Q524.1637451171875 -24.645922851562503 523.9677490234376 -23.631933593750002L523.6717529296876 -23.73193359375Q526.3717529296875 -29.5559326171875 529.4537475585938 -33.532934570312506Q532.5357421875001 -37.5099365234375 535.6527343750001 -39.9139404296875Q538.7697265625001 -42.317944335937504 541.7127197265626 -43.395947265625004Q544.6557128906251 -44.473950195312504 547.0997070312501 -44.473950195312504Q550.1937011718751 -44.473950195312504 551.5856811523438 -43.00694580078125Q552.9776611328126 -41.53994140625 552.9726440429688 -38.8639404296875Q552.9676269531251 -36.187939453125004 551.8436279296876 -32.5219482421875L544.9776123046876 -10.513940429687501Q543.543603515625 -5.943920898437501 543.9726074218751 -4.490917968750001Q544.4016113281251 -3.0379150390625003 545.6336181640626 -3.0379150390625003Q546.7116210937501 -3.0379150390625003 548.0476318359376 -3.9399169921875004Q549.3836425781251 -4.8419189453125 551.349658203125 -7.3059326171875005Q551.6176513671876 -7.671923828125 551.7426513671876 -7.78292236328125Q551.8676513671876 -7.8939208984375 552.0156494140625 -7.8419189453125Q552.187646484375 -7.81591796875 552.1616455078125 -7.5709228515625Q552.13564453125 -7.325927734375 551.9156494140626 -6.887939453125Q549.8036376953125 -3.3279541015625003 546.5996826171876 -1.2289794921875001Q543.3957275390626 0.8699951171875 539.0278320312501 0.8699951171875Q536.4018798828125 0.8699951171875 535.0818969726563 -0.14699707031249998Q533.7619140625001 -1.1639892578125 533.6739135742189 -3.22197265625Q533.5859130859376 -5.2799560546875 534.5539062500001 -8.4539306640625L541.5999511718751 -30.942041015625Q543.1619628906251 -35.8980712890625 542.5899536132813 -37.64808349609375Q542.0179443359376 -39.398095703125 539.8259277343751 -39.398095703125Q538.3339111328125 -39.398095703125 536.0918823242189 -38.15008544921875Q533.8498535156251 -36.9020751953125 531.2788208007813 -34.15205078125Q528.7077880859375 -31.402026367187503 526.1527587890625 -26.970983886718752Q523.5977294921876 -22.53994140625 521.4797119140626 -16.1978759765625Q520.4957031250001 -13.19384765625 519.9457031250001 -11.08885498046875Q519.3957031250001 -8.9838623046875 519.1737060546875 -7.6058837890625Q518.951708984375 -6.2279052734375 518.951708984375 -5.3899169921875005Q518.951708984375 -4.5019287109375 519.3217041015625 -3.9719360351562503Q519.69169921875 -3.441943359375 519.69169921875 -2.6259521484375004Q519.69169921875 -1.1559814453125001 517.3887573242189 -0.14299316406250007Q515.0858154296876 0.8699951171875 511.08393554687507 0.8699951171875Q508.44599609375007 0.8699951171875 507.9730102539063 -0.25198974609375Q507.5000244140626 -1.373974609375 508.2640136718751 -3.8019287109375L517.420068359375 -32.1139892578125Q518.9200927734375 -36.6240478515625 518.6520874023438 -38.2110595703125Q518.38408203125 -39.798071289062506 516.9940673828125 -39.798071289062506Q515.9660644531251 -39.798071289062506 514.5720581054688 -38.896069335937504Q513.1780517578126 -37.9940673828125 510.9000488281251 -35.3380615234375Q510.70405273437507 -35.116064453125 510.55505371093756 -35.01806640625Q510.40605468750005 -34.920068359375 510.23405761718755 -34.9460693359375Z" fill="#4F4A45"/>
<path d="M570.5098876953126 -0.0419921875Q573.6519287109376 -0.0419921875 575.7649536132812 -2.0219970703125Q577.877978515625 -4.002001953125 577.9019775390626 -7.01201171875Q577.9259765625001 -8.602001953125 577.2789794921875 -10.11600341796875Q576.6319824218751 -11.6300048828125 575.0819824218752 -13.482019042968751Q573.5319824218751 -15.334033203125001 570.8719726562501 -17.8900634765625Q567.8059814453126 -20.756079101562502 565.9219970703125 -22.902075195312502Q564.0380126953125 -25.048071289062502 563.2360229492188 -27.02105712890625Q562.4340332031251 -28.99404296875 562.5540283203126 -31.326025390625002Q562.7460205078125 -34.8820068359375 564.9930053710939 -37.923986816406256Q567.2399902343751 -40.965966796875 571.1679565429688 -42.83995361328125Q575.0959228515626 -44.713940429687504 580.2818603515626 -44.713940429687504Q584.6518066406251 -44.713940429687504 587.5807739257814 -43.60195312500001Q590.5097412109376 -42.489965820312506 592.0057250976563 -40.7349853515625Q593.5017089843751 -38.9800048828125 593.5497070312501 -37.054028320312504Q593.597705078125 -35.3000732421875 592.7067260742188 -34.26710205078125Q591.8157470703126 -33.234130859375 590.4257812500001 -33.234130859375Q588.7738281250001 -33.234130859375 587.6408569335938 -34.41209716796875Q586.5078857421876 -35.5900634765625 585.6698974609376 -38.675976562500004Q584.7618896484375 -41.403955078125 583.2128784179688 -42.61495361328125Q581.6638671875 -43.8259521484375 579.5858642578125 -43.8259521484375Q576.1598144531251 -43.8259521484375 573.9247802734376 -41.6599365234375Q571.68974609375 -39.4939208984375 571.6657470703126 -35.9739013671875Q571.6417480468751 -34.105908203125004 572.2587402343752 -32.39791259765625Q572.8757324218751 -30.689916992187502 574.7007202148438 -28.57491455078125Q576.5257080078126 -26.459912109375 580.0616943359375 -23.221899414062502Q582.9516845703126 -20.635888671875 584.6166748046876 -18.65089111328125Q586.2816650390625 -16.6658935546875 586.9276611328125 -14.826904296875Q587.5736572265625 -12.9879150390625 587.3336669921875 -10.7779296875Q586.9976806640626 -7.3719482421875 584.6897094726564 -4.75196533203125Q582.3817382812501 -2.131982421875 578.5887817382813 -0.63099365234375Q574.7958251953125 0.8699951171875 569.8798828125001 0.8699951171875Q565.4239501953126 0.8699951171875 562.2769775390626 -0.47099609375000007Q559.1300048828126 -1.8119873046875001 557.5100097656251 -3.9349731445312504Q555.8900146484376 -6.057958984375 555.8900146484376 -8.3659423828125Q555.8900146484376 -9.9259033203125 556.6319946289063 -10.971875Q557.3739746093751 -12.017846679687501 558.8099365234376 -12.017846679687501Q560.5298828125001 -12.017846679687501 561.6188598632814 -10.7288818359375Q562.7078369140626 -9.4399169921875 563.5738281250001 -6.3699951171875Q564.9498535156251 -2.8939941406250003 566.6188720703126 -1.4679931640625001Q568.287890625 -0.0419921875 570.5098876953126 -0.0419921875Z" fill="#4F4A45"/>
</svg>
