<svg xmlns="http://www.w3.org/2000/svg" viewBox="0 0 256 256">
<circle cx="128.0" cy="128.0" r="108" fill="none" stroke="#FBF6EF" stroke-width="3"/>
<g transform="translate(128.0,44) scale(0.92)">
  <path d="M0 46 C0 30 0 14 0 0" stroke="#FBF6EF" stroke-width="2.2" stroke-linecap="round" fill="none"/>
  <ellipse cx="-13" cy="34" rx="11" ry="5.6" transform="rotate(-32 -13 34)" fill="#FBF6EF"/>
  <ellipse cx="13" cy="28" rx="11" ry="5.6" transform="rotate(32 13 28)" fill="#FBF6EF"/>
  <ellipse cx="-11" cy="17" rx="9.5" ry="5" transform="rotate(-28 -11 17)" fill="#FBF6EF"/>
  <ellipse cx="11" cy="11" rx="9.5" ry="5" transform="rotate(28 11 11)" fill="#FBF6EF"/>
  <ellipse cx="0" cy="-2" rx="6.5" ry="7.5" fill="#FBF6EF"/>
</g>
<g transform="translate(51.72,191.30)"><path d="M20.849999999999998 -5.7Q19.8 -5.55 18.525 -6.525Q17.25 -7.5 16.2 -8.25Q14.7 -10.049999999999999 14.1 -11.399999999999999Q13.5 -12.75 13.5 -14.4Q13.5 -16.05 13.799999999999999 -18.3Q14.549999999999999 -20.7 15.599999999999998 -24.75Q16.65 -28.799999999999997 18.15 -33.449999999999996Q18.45 -35.25 19.275 -37.724999999999994Q20.099999999999998 -40.199999999999996 21.0 -42.525Q21.9 -44.85 22.349999999999998 -46.05Q23.4 -49.8 24.525 -53.25Q25.65 -56.699999999999996 27.299999999999997 -61.2Q28.95 -65.7 31.349999999999998 -72.6Q34.65 -81.6 36.3 -86.1Q37.949999999999996 -90.6 38.699999999999996 -92.55Q39.449999999999996 -94.5 39.75 -95.7Q39.75 -96.89999999999999 41.474999999999994 -98.02499999999999Q43.199999999999996 -99.14999999999999 44.55 -99.14999999999999Q46.65 -99.0 48.599999999999994 -96.675Q50.55 -94.35 51.3 -91.125Q52.05 -87.89999999999999 50.25 -84.89999999999999Q47.85 -79.5 45.525 -72.82499999999999Q43.199999999999996 -66.14999999999999 40.949999999999996 -59.55Q38.699999999999996 -52.949999999999996 36.449999999999996 -47.4Q36.3 -46.65 35.474999999999994 -44.849999999999994Q34.65 -43.05 34.05 -41.85Q33.449999999999996 -40.65 32.925 -39.599999999999994Q32.4 -38.55 32.4 -38.55Q32.25 -37.65 31.799999999999997 -36.0Q31.349999999999998 -34.35 30.9 -33.15Q30.75 -32.4 30.45 -31.2Q30.15 -30.0 30.0 -28.799999999999997Q30.75 -29.7 32.099999999999994 -30.975Q33.449999999999996 -32.25 35.55 -34.199999999999996Q37.949999999999996 -36.3 39.75 -37.8Q41.55 -39.3 43.35 -40.5Q45.0 -41.699999999999996 46.425 -42.75Q47.85 -43.8 47.85 -43.8Q48.15 -44.25 48.525 -44.849999999999994Q48.9 -45.449999999999996 49.35 -45.6Q49.65 -45.9 50.4 -46.425Q51.15 -46.949999999999996 51.9 -47.55Q53.25 -48.449999999999996 54.75 -49.05Q56.25 -49.65 57.9 -49.95Q59.55 -50.25 61.05 -50.25Q62.849999999999994 -50.25 64.8 -48.825Q66.75 -47.4 68.39999999999999 -44.85Q69.89999999999999 -42.9 70.27499999999999 -40.275Q70.64999999999999 -37.65 70.35 -33.3Q70.35 -32.1 69.675 -28.8Q69.0 -25.5 68.7 -23.849999999999998L67.35 -18.75H68.55Q70.2 -19.349999999999998 71.775 -18.9Q73.35 -18.45 73.35 -18.45Q74.1 -18.0 74.775 -17.4Q75.45 -16.8 76.05 -16.5Q76.95 -15.299999999999999 75.75 -13.049999999999999Q74.55 -10.799999999999999 73.05 -9.9Q69.45 -7.5 66.675 -6.9Q63.9 -6.3 60.9 -7.949999999999999Q58.05 -9.9 57.075 -12.6Q56.1 -15.299999999999999 56.25 -19.95Q56.85 -26.55 57.0 -29.475Q57.15 -32.4 55.5 -32.4Q53.699999999999996 -32.4 50.625 -30.674999999999997Q47.55 -28.95 43.8 -26.025Q40.05 -23.099999999999998 36.375 -19.575Q32.699999999999996 -16.05 29.849999999999998 -12.45Q28.05 -10.2 25.95 -8.024999999999999Q23.849999999999998 -5.85 20.849999999999998 -5.7Z" fill="#FBF6EF"/>
<path d="M90.15 0.44999999999999996Q88.95 0.0 87.0 -2.025Q85.05 -4.05 83.55 -6.525Q82.05 -9.0 82.05 -10.65Q82.8 -12.299999999999999 84.07499999999999 -16.5Q85.35 -20.7 87.0 -25.95Q88.2 -27.599999999999998 88.875 -29.775Q89.55 -31.95 90.15 -33.75Q91.35 -36.449999999999996 92.85 -39.9Q94.35 -43.35 95.775 -46.95Q97.2 -50.55 98.4 -53.25Q100.5 -57.75 101.925 -61.125Q103.35 -64.5 104.775 -67.8Q106.2 -71.1 107.85 -75.14999999999999Q110.1 -79.8 111.975 -84.375Q113.85 -88.95 115.275 -92.55Q116.7 -96.14999999999999 117.0 -97.64999999999999Q116.85 -98.85 117.3 -99.375Q117.75 -99.89999999999999 118.5 -100.05Q119.25 -100.5 120.9 -100.65Q122.55000000000001 -100.8 123.15 -100.8Q124.95 -100.5 126.82499999999999 -97.875Q128.7 -95.25 128.7 -93.45Q128.7 -91.05 126.375 -84.525Q124.05000000000001 -78.0 119.7 -69.14999999999999Q114.45 -57.9 111.825 -51.75Q109.2 -45.6 108.30000000000001 -43.05Q107.4 -40.5 107.55000000000001 -39.75Q107.55000000000001 -39.75 108.75 -40.2Q109.95 -40.65 112.35 -42.3Q114.0 -43.35 116.1 -45.0Q118.2 -46.65 120.225 -48.0Q122.25 -49.35 123.45 -49.65Q124.2 -50.25 125.55000000000001 -51.15Q126.9 -52.05 128.1 -52.8Q130.95 -54.9 132.6 -54.15Q134.25 -53.4 135.6 -51.6Q137.25 -49.65 136.875 -47.474999999999994Q136.5 -45.3 132.15 -41.85Q128.85 -39.449999999999996 125.1 -37.275Q121.35 -35.1 118.275 -33.45Q115.2 -31.799999999999997 113.85 -30.75Q113.85 -30.75 115.2 -28.799999999999997Q116.55000000000001 -26.849999999999998 117.75 -25.05Q118.95 -22.65 120.75 -18.974999999999998Q122.55000000000001 -15.299999999999999 123.45 -13.799999999999999Q125.1 -11.4 126.825 -10.65Q128.55 -9.9 132.0 -11.1Q134.25 -11.7 135.825 -11.024999999999999Q137.4 -10.35 138.45 -8.85Q139.05 -7.6499999999999995 139.05 -6.449999999999999Q139.05 -5.25 137.1 -3.5999999999999996Q132.9 -0.75 128.925 1.275Q124.95 3.3 121.35 0.8999999999999999Q118.2 -1.5 115.42500000000001 -4.574999999999999Q112.65 -7.6499999999999995 109.2 -12.15Q109.2 -12.75 108.30000000000001 -14.7Q107.4 -16.65 107.1 -16.95Q106.5 -18.15 105.825 -19.125Q105.15 -20.099999999999998 105.15 -20.099999999999998Q104.7 -21.75 104.025 -22.799999999999997Q103.35 -23.849999999999998 102.3 -24.0Q101.7 -23.55 100.95 -22.5Q100.2 -21.45 99.45 -19.95Q98.55 -17.7 97.65 -15.524999999999999Q96.75 -13.35 96.15 -10.875Q95.55 -8.4 95.4 -4.95Q95.55 -3.3 94.05 -1.4249999999999998Q92.55 0.44999999999999996 90.15 0.44999999999999996Z" fill="#FBF6EF"/></g>
</svg>
